<svg xmlns="http://www.w3.org/2000/svg" width="32px" height="32px" viewBox="0 0 32 32">
	<g fill="none">
		<g stroke-width="1.4" filter="url(#f94id18)">
			<path stroke="#d2c2d4" d="M8.265 11.028h4.26a1 1 0 0 0 .809-.413l2.78-3.835" />
			<path stroke="url(#f94id0)" d="M8.265 11.028h4.26a1 1 0 0 0 .809-.413l2.78-3.835" />
		</g>
		<path stroke="url(#f94id1)" stroke-width="1.4" d="M8.265 11.028h4.26a1 1 0 0 0 .809-.413l2.78-3.835" />
		<g stroke-width="1.4" filter="url(#f94id19)">
			<path stroke="#d2c2d4" d="M23.752 11.028h-4.26a1 1 0 0 1-.81-.413l-2.78-3.835" />
			<path stroke="url(#f94id2)" d="M23.752 11.028h-4.26a1 1 0 0 1-.81-.413l-2.78-3.835" />
		</g>
		<path stroke="url(#f94idr)" d="M8.033 12.197v8.748" />
		<path stroke="url(#f94ids)" d="m13.468 20.472l-5.203-8.275" />
		<path stroke="url(#f94idt)" d="m13.468 20.472l-5.203-8.275" />
		<path stroke="url(#f94idu)" d="M23.956 12.197v8.748" />
		<path stroke="url(#f94idv)" d="m18.578 20.472l5.204-8.275" />
		<g filter="url(#f94id1a)">
			<path stroke="#f8dde7" stroke-width="0.25" d="m18.578 20.472l5.204-8.275" />
		</g>
		<path stroke="url(#f94idw)" d="m29.392 20.472l-5.204-8.275" />
		<path stroke="url(#f94idx)" d="m29.392 20.472l-5.204-8.275" />
		<circle cx="23.985" cy="11.004" r="1.627" fill="url(#f94id3)" />
		<circle cx="23.985" cy="11.004" r="1.627" fill="url(#f94id4)" />
		<circle cx="23.985" cy="11.004" r="1.627" fill="url(#f94id5)" />
		<path fill="url(#f94id6)" d="M18.595 19.998c-.414 0-.724.384-.585.775a6.341 6.341 0 0 0 11.95 0c.139-.39-.171-.775-.585-.775z" />
		<path fill="url(#f94idy)" d="M18.595 19.998c-.414 0-.724.384-.585.775a6.341 6.341 0 0 0 11.95 0c.139-.39-.171-.775-.585-.775z" />
		<path fill="url(#f94id7)" d="M18.595 19.998c-.414 0-.724.384-.585.775a6.341 6.341 0 0 0 11.95 0c.139-.39-.171-.775-.585-.775z" />
		<path fill="url(#f94id8)" d="M18.595 19.998c-.414 0-.724.384-.585.775a6.341 6.341 0 0 0 11.95 0c.139-.39-.171-.775-.585-.775z" />
		<path fill="url(#f94id9)" d="M18.595 19.998c-.414 0-.724.384-.585.775a6.341 6.341 0 0 0 11.95 0c.139-.39-.171-.775-.585-.775z" />
		<path fill="url(#f94ida)" d="M18.595 19.998c-.414 0-.724.384-.585.775a6.341 6.341 0 0 0 11.95 0c.139-.39-.171-.775-.585-.775z" />
		<path stroke="url(#f94idz)" d="m2.655 20.472l5.204-8.275" />
		<g filter="url(#f94id1b)">
			<path stroke="#f8dde7" stroke-width="0.25" d="m2.812 20.472l5.203-8.275" />
		</g>
		<path fill="url(#f94idb)" d="M2.626 19.998c-.415 0-.724.384-.586.775a6.341 6.341 0 0 0 11.95 0c.139-.39-.17-.775-.585-.775z" />
		<path fill="url(#f94id10)" d="M2.626 19.998c-.415 0-.724.384-.586.775a6.341 6.341 0 0 0 11.95 0c.139-.39-.17-.775-.585-.775z" />
		<path fill="url(#f94idc)" d="M2.626 19.998c-.415 0-.724.384-.586.775a6.341 6.341 0 0 0 11.95 0c.139-.39-.17-.775-.585-.775z" />
		<path fill="url(#f94idd)" d="M2.626 19.998c-.415 0-.724.384-.586.775a6.341 6.341 0 0 0 11.95 0c.139-.39-.17-.775-.585-.775z" />
		<path fill="url(#f94ide)" d="M2.626 19.998c-.415 0-.724.384-.586.775a6.341 6.341 0 0 0 11.95 0c.139-.39-.17-.775-.585-.775z" />
		<path fill="url(#f94idf)" d="M2.626 19.998c-.415 0-.724.384-.586.775a6.341 6.341 0 0 0 11.95 0c.139-.39-.17-.775-.585-.775z" />
		<circle cx="8.015" cy="11.004" r="1.627" fill="url(#f94idg)" />
		<circle cx="8.015" cy="11.004" r="1.627" fill="url(#f94idh)" />
		<circle cx="8.015" cy="11.004" r="1.627" fill="url(#f94idi)" />
		<g filter="url(#f94id1c)">
			<path stroke="url(#f94id11)" stroke-linecap="round" stroke-width="0.4" d="m16.456 6.953l2.766 3.813" />
		</g>
		<path stroke="url(#f94id12)" stroke-width="1.5" d="M16 4.376V26.66" />
		<path stroke="url(#f94idj)" stroke-width="1.5" d="M16 4.376V26.66" />
		<path stroke="url(#f94id13)" stroke-width="1.5" d="M16 4.376V26.66" />
		<path stroke="url(#f94id14)" stroke-width="1.5" d="M16 4.376V26.66" />
		<path stroke="url(#f94idk)" stroke-width="1.5" d="M16 4.376V26.66" />
		<path fill="url(#f94id15)" d="M23.19 29.963c.64 0 .967-.737.485-1.16A11.58 11.58 0 0 0 16 25.906a11.58 11.58 0 0 0-7.676 2.895c-.48.424-.155 1.16.486 1.16z" />
		<path fill="url(#f94idl)" d="M23.19 29.963c.64 0 .967-.737.485-1.16A11.58 11.58 0 0 0 16 25.906a11.58 11.58 0 0 0-7.676 2.895c-.48.424-.155 1.16.486 1.16z" />
		<path fill="url(#f94id16)" d="M23.19 29.963c.64 0 .967-.737.485-1.16A11.58 11.58 0 0 0 16 25.906a11.58 11.58 0 0 0-7.676 2.895c-.48.424-.155 1.16.486 1.16z" />
		<path fill="url(#f94idm)" d="M23.19 29.963c.64 0 .967-.737.485-1.16A11.58 11.58 0 0 0 16 25.906a11.58 11.58 0 0 0-7.676 2.895c-.48.424-.155 1.16.486 1.16z" />
		<path fill="url(#f94idn)" d="M23.19 29.963c.64 0 .967-.737.485-1.16A11.58 11.58 0 0 0 16 25.906a11.58 11.58 0 0 0-7.676 2.895c-.48.424-.155 1.16.486 1.16z" />
		<g filter="url(#f94id1d)">
			<path stroke="url(#f94id17)" stroke-width="0.4" d="M16.393 4.906v17.125" />
		</g>
		<circle cx="16" cy="3.666" r="1.627" fill="url(#f94ido)" />
		<circle cx="16" cy="3.666" r="1.627" fill="url(#f94idp)" />
		<circle cx="16" cy="3.666" r="1.627" fill="url(#f94idq)" />
		<defs>
			<radialGradient id="f94id0" cx="0" cy="0" r="1" gradientTransform="matrix(1.40625 0 0 2.47157 9.248 11.028)" gradientUnits="userSpaceOnUse">
				<stop offset=".289" stop-color="#bdaab9" />
				<stop offset="1" stop-color="#bdaab9" stop-opacity="0" />
			</radialGradient>
			<radialGradient id="f94id1" cx="0" cy="0" r="1" gradientTransform="matrix(5.125 -4.125 3.1941 3.96843 10.487 11.938)" gradientUnits="userSpaceOnUse">
				<stop offset=".726" stop-color="#99839c" stop-opacity="0" />
				<stop offset=".988" stop-color="#99839c" />
			</radialGradient>
			<radialGradient id="f94id2" cx="0" cy="0" r="1" gradientTransform="matrix(-1.40625 0 0 -2.47157 22.768 11.028)" gradientUnits="userSpaceOnUse">
				<stop offset=".289" stop-color="#bdaab9" />
				<stop offset="1" stop-color="#bdaab9" stop-opacity="0" />
			</radialGradient>
			<radialGradient id="f94id3" cx="0" cy="0" r="1" gradientTransform="rotate(110.554 8.92 13.723)scale(2.60891 2.71579)" gradientUnits="userSpaceOnUse">
				<stop offset=".319" stop-color="#ffc539" />
				<stop offset="1" stop-color="#f6973e" />
			</radialGradient>
			<radialGradient id="f94id4" cx="0" cy="0" r="1" gradientTransform="rotate(134.483 10.685 10.428)scale(1.78636 1.9273)" gradientUnits="userSpaceOnUse">
				<stop stop-color="#fff361" />
				<stop offset="1" stop-color="#fff361" stop-opacity="0" />
			</radialGradient>
			<radialGradient id="f94id5" cx="0" cy="0" r="1" gradientTransform="matrix(0 -1.37105 1.18631 0 23.985 12.834)" gradientUnits="userSpaceOnUse">
				<stop stop-color="#e98856" />
				<stop offset="1" stop-color="#e98856" stop-opacity="0" />
			</radialGradient>
			<radialGradient id="f94id6" cx="0" cy="0" r="1" gradientTransform="matrix(0 4.80267 -8.93422 0 23.985 20.188)" gradientUnits="userSpaceOnUse">
				<stop offset=".482" stop-color="#ffb85e" />
				<stop offset="1" stop-color="#ff9d5b" />
			</radialGradient>
			<radialGradient id="f94id7" cx="0" cy="0" r="1" gradientTransform="matrix(-3.28126 4.375 -2.905 -2.17876 28.676 19.438)" gradientUnits="userSpaceOnUse">
				<stop stop-color="#ffc635" />
				<stop offset="1" stop-color="#ffc635" stop-opacity="0" />
			</radialGradient>
			<radialGradient id="f94id8" cx="0" cy="0" r="1" gradientTransform="matrix(0 4.49017 -8.65297 0 23.985 20.5)" gradientUnits="userSpaceOnUse">
				<stop offset=".592" stop-color="#fd9860" stop-opacity="0" />
				<stop offset="1" stop-color="#f18e9d" />
			</radialGradient>
			<radialGradient id="f94id9" cx="0" cy="0" r="1" gradientTransform="rotate(52.677 -8.388 32.667)scale(7.11272 9.92047)" gradientUnits="userSpaceOnUse">
				<stop offset=".827" stop-color="#ffb651" stop-opacity="0" />
				<stop offset="1" stop-color="#e29471" />
			</radialGradient>
			<radialGradient id="f94ida" cx="0" cy="0" r="1" gradientTransform="matrix(0 1.125 -8.32499 0 27.988 20.5)" gradientUnits="userSpaceOnUse">
				<stop stop-color="#fff263" />
				<stop offset="1" stop-color="#ffd049" stop-opacity="0" />
			</radialGradient>
			<radialGradient id="f94idb" cx="0" cy="0" r="1" gradientTransform="matrix(0 4.80267 -8.93422 0 8.015 20.188)" gradientUnits="userSpaceOnUse">
				<stop offset=".482" stop-color="#ffb85e" />
				<stop offset="1" stop-color="#ff9d5b" />
			</radialGradient>
			<radialGradient id="f94idc" cx="0" cy="0" r="1" gradientTransform="matrix(-3.28126 4.375 -2.905 -2.17876 12.706 19.438)" gradientUnits="userSpaceOnUse">
				<stop stop-color="#ffc635" />
				<stop offset="1" stop-color="#ffc635" stop-opacity="0" />
			</radialGradient>
			<radialGradient id="f94idd" cx="0" cy="0" r="1" gradientTransform="matrix(0 1.125 -8.32499 0 12.018 20.5)" gradientUnits="userSpaceOnUse">
				<stop stop-color="#fff263" />
				<stop offset="1" stop-color="#ffd049" stop-opacity="0" />
			</radialGradient>
			<radialGradient id="f94ide" cx="0" cy="0" r="1" gradientTransform="matrix(0 4.49017 -8.65297 0 8.015 20.5)" gradientUnits="userSpaceOnUse">
				<stop offset=".592" stop-color="#fd9860" stop-opacity="0" />
				<stop offset="1" stop-color="#f18e9d" />
			</radialGradient>
			<radialGradient id="f94idf" cx="0" cy="0" r="1" gradientTransform="rotate(52.677 -16.373 16.538)scale(7.11272 9.92047)" gradientUnits="userSpaceOnUse">
				<stop offset=".827" stop-color="#ffb651" stop-opacity="0" />
				<stop offset="1" stop-color="#e29471" />
			</radialGradient>
			<radialGradient id="f94idg" cx="0" cy="0" r="1" gradientTransform="rotate(110.554 .935 8.189)scale(2.60891 2.71579)" gradientUnits="userSpaceOnUse">
				<stop offset=".319" stop-color="#ffc539" />
				<stop offset="1" stop-color="#f6973e" />
			</radialGradient>
			<radialGradient id="f94idh" cx="0" cy="0" r="1" gradientTransform="rotate(134.483 2.7 7.078)scale(1.78636 1.9273)" gradientUnits="userSpaceOnUse">
				<stop stop-color="#fff361" />
				<stop offset="1" stop-color="#fff361" stop-opacity="0" />
			</radialGradient>
			<radialGradient id="f94idi" cx="0" cy="0" r="1" gradientTransform="matrix(0 -1.37105 1.18631 0 8.015 12.834)" gradientUnits="userSpaceOnUse">
				<stop stop-color="#e98856" />
				<stop offset="1" stop-color="#e98856" stop-opacity="0" />
			</radialGradient>
			<radialGradient id="f94idj" cx="0" cy="0" r="1" gradientTransform="rotate(117.255 6.37 7.125)scale(2.15051 1.22508)" gradientUnits="userSpaceOnUse">
				<stop stop-color="#b59cad" />
				<stop offset="1" stop-color="#b59cad" stop-opacity="0" />
			</radialGradient>
			<radialGradient id="f94idk" cx="0" cy="0" r="1" gradientTransform="matrix(0 14.473 -5.94303 0 16 12.188)" gradientUnits="userSpaceOnUse">
				<stop offset=".922" stop-color="#92767e" stop-opacity="0" />
				<stop offset="1" stop-color="#92767e" />
			</radialGradient>
			<radialGradient id="f94idl" cx="0" cy="0" r="1" gradientTransform="matrix(-7.42474 0 0 -2.6875 23.425 29.75)" gradientUnits="userSpaceOnUse">
				<stop stop-color="#ffff64" />
				<stop offset="1" stop-color="#ffff64" stop-opacity="0" />
			</radialGradient>
			<radialGradient id="f94idm" cx="0" cy="0" r="1" gradientTransform="matrix(-1.68751 -5.375 15.5425 -4.87966 15.362 30.969)" gradientUnits="userSpaceOnUse">
				<stop offset=".57" stop-color="#eb9e40" stop-opacity="0" />
				<stop offset="1" stop-color="#eb9e40" />
			</radialGradient>
			<radialGradient id="f94idn" cx="0" cy="0" r="1" gradientTransform="matrix(.00003 -3.75 12.8622 .00009 16 29.375)" gradientUnits="userSpaceOnUse">
				<stop offset=".685" stop-color="#ddb761" stop-opacity="0" />
				<stop offset="1" stop-color="#d29f5f" />
			</radialGradient>
			<radialGradient id="f94ido" cx="0" cy="0" r="1" gradientTransform="rotate(110.554 7.47 7.287)scale(2.60891 2.71579)" gradientUnits="userSpaceOnUse">
				<stop offset=".319" stop-color="#ffc539" />
				<stop offset="1" stop-color="#f6973e" />
			</radialGradient>
			<radialGradient id="f94idp" cx="0" cy="0" r="1" gradientTransform="rotate(134.483 8.232 5.084)scale(1.78636 1.9273)" gradientUnits="userSpaceOnUse">
				<stop stop-color="#fff361" />
				<stop offset="1" stop-color="#fff361" stop-opacity="0" />
			</radialGradient>
			<radialGradient id="f94idq" cx="0" cy="0" r="1" gradientTransform="matrix(0 -1.37105 1.18631 0 16 5.496)" gradientUnits="userSpaceOnUse">
				<stop stop-color="#e98856" />
				<stop offset="1" stop-color="#e98856" stop-opacity="0" />
			</radialGradient>
			<linearGradient id="f94idr" x1="7.425" x2="8.862" y1="18.031" y2="18.063" gradientUnits="userSpaceOnUse">
				<stop offset=".188" stop-color="#bba1b3" />
				<stop offset="1" stop-color="#d7b7c8" />
			</linearGradient>
			<linearGradient id="f94ids" x1="10.503" x2="11.237" y1="16.334" y2="15.813" gradientUnits="userSpaceOnUse">
				<stop offset=".175" stop-color="#d0b6c3" />
				<stop offset="1" stop-color="#e6d2e4" />
			</linearGradient>
			<linearGradient id="f94idt" x1="10.331" x2="10.53" y1="16.395" y2="16.266" gradientUnits="userSpaceOnUse">
				<stop stop-color="#c2a6b1" />
				<stop offset="1" stop-color="#c2a6b1" stop-opacity="0" />
			</linearGradient>
			<linearGradient id="f94idu" x1="23.348" x2="24.785" y1="18.031" y2="18.063" gradientUnits="userSpaceOnUse">
				<stop offset=".188" stop-color="#bba1b3" />
				<stop offset="1" stop-color="#d7b7c8" />
			</linearGradient>
			<linearGradient id="f94idv" x1="20.473" x2="21.442" y1="16.334" y2="17.031" gradientUnits="userSpaceOnUse">
				<stop stop-color="#c1afc0" />
				<stop offset="1" stop-color="#f6d6de" />
			</linearGradient>
			<linearGradient id="f94idw" x1="26.426" x2="27.16" y1="16.334" y2="15.813" gradientUnits="userSpaceOnUse">
				<stop offset=".175" stop-color="#d0b6c3" />
				<stop offset="1" stop-color="#e6d2e4" />
			</linearGradient>
			<linearGradient id="f94idx" x1="26.254" x2="26.453" y1="16.395" y2="16.266" gradientUnits="userSpaceOnUse">
				<stop stop-color="#c2a6b1" />
				<stop offset="1" stop-color="#c2a6b1" stop-opacity="0" />
			</linearGradient>
			<linearGradient id="f94idy" x1="23.985" x2="23.985" y1="19.998" y2="21.156" gradientUnits="userSpaceOnUse">
				<stop stop-color="#ffcf4d" />
				<stop offset="1" stop-color="#ffcf4d" stop-opacity="0" />
			</linearGradient>
			<linearGradient id="f94idz" x1="4.55" x2="5.518" y1="16.334" y2="17.031" gradientUnits="userSpaceOnUse">
				<stop stop-color="#c1afc0" />
				<stop offset="1" stop-color="#f6d6de" />
			</linearGradient>
			<linearGradient id="f94id10" x1="8.015" x2="8.015" y1="19.998" y2="21.156" gradientUnits="userSpaceOnUse">
				<stop stop-color="#ffcf4d" />
				<stop offset="1" stop-color="#ffcf4d" stop-opacity="0" />
			</linearGradient>
			<linearGradient id="f94id11" x1="16.362" x2="19.421" y1="7.757" y2="11.981" gradientUnits="userSpaceOnUse">
				<stop stop-color="#fdebff" />
				<stop offset="1" stop-color="#fdebff" stop-opacity="0" />
			</linearGradient>
			<linearGradient id="f94id12" x1="15.255" x2="16.375" y1="13.896" y2="13.896" gradientUnits="userSpaceOnUse">
				<stop stop-color="#c3aec2" />
				<stop offset="1" stop-color="#e7d3e6" />
			</linearGradient>
			<linearGradient id="f94id13" x1="15.294" x2="15.294" y1="26.294" y2="20.925" gradientUnits="userSpaceOnUse">
				<stop stop-color="#bc9ea3" />
				<stop offset="1" stop-color="#bc9ea3" stop-opacity="0" />
			</linearGradient>
			<linearGradient id="f94id14" x1="15.151" x2="15.503" y1="16" y2="16" gradientUnits="userSpaceOnUse">
				<stop stop-color="#a38b8f" />
				<stop offset="1" stop-color="#cbb6ca" stop-opacity="0" />
			</linearGradient>
			<linearGradient id="f94id15" x1="16" x2="16" y1="25.907" y2="29.719" gradientUnits="userSpaceOnUse">
				<stop offset=".254" stop-color="#f9c63c" />
				<stop offset=".754" stop-color="#ffce37" />
			</linearGradient>
			<linearGradient id="f94id16" x1="17.675" x2="17.675" y1="29.963" y2="29.219" gradientUnits="userSpaceOnUse">
				<stop stop-color="#fa8694" />
				<stop offset="1" stop-color="#ffa166" stop-opacity="0" />
			</linearGradient>
			<linearGradient id="f94id17" x1="16.893" x2="16.893" y1="4.906" y2="22.031" gradientUnits="userSpaceOnUse">
				<stop stop-color="#edd9ee" />
				<stop offset="1" stop-color="#edd9ee" stop-opacity="0" />
			</linearGradient>
			<filter id="f94id18" width="8.917" height="5.859" x="7.765" y="5.869" color-interpolation-filters="sRGB" filterUnits="userSpaceOnUse">
				<feFlood flood-opacity="0" result="BackgroundImageFix" />
				<feBlend in="SourceGraphic" in2="BackgroundImageFix" result="shape" />
				<feColorMatrix in="SourceAlpha" result="hardAlpha" values="0 0 0 0 0 0 0 0 0 0 0 0 0 0 0 0 0 0 127 0" />
				<feOffset dx="-.5" dy="-.5" />
				<feGaussianBlur stdDeviation=".5" />
				<feComposite in2="hardAlpha" k2="-1" k3="1" operator="arithmetic" />
				<feColorMatrix values="0 0 0 0 0.682353 0 0 0 0 0.588235 0 0 0 0 0.694118 0 0 0 1 0" />
				<feBlend in2="shape" result="effect1_innerShadow_18_24521" />
			</filter>
			<filter id="f94id19" width="8.917" height="5.859" x="15.335" y="5.869" color-interpolation-filters="sRGB" filterUnits="userSpaceOnUse">
				<feFlood flood-opacity="0" result="BackgroundImageFix" />
				<feBlend in="SourceGraphic" in2="BackgroundImageFix" result="shape" />
				<feColorMatrix in="SourceAlpha" result="hardAlpha" values="0 0 0 0 0 0 0 0 0 0 0 0 0 0 0 0 0 0 127 0" />
				<feOffset dx=".5" dy="-.5" />
				<feGaussianBlur stdDeviation=".5" />
				<feComposite in2="hardAlpha" k2="-1" k3="1" operator="arithmetic" />
				<feColorMatrix values="0 0 0 0 0.682353 0 0 0 0 0.588235 0 0 0 0 0.694118 0 0 0 1 0" />
				<feBlend in2="shape" result="effect1_innerShadow_18_24521" />
			</filter>
			<filter id="f94id1a" width="6.215" height="9.208" x="18.073" y="11.73" color-interpolation-filters="sRGB" filterUnits="userSpaceOnUse">
				<feFlood flood-opacity="0" result="BackgroundImageFix" />
				<feBlend in="SourceGraphic" in2="BackgroundImageFix" result="shape" />
				<feGaussianBlur result="effect1_foregroundBlur_18_24521" stdDeviation=".2" />
			</filter>
			<filter id="f94id1b" width="6.215" height="9.208" x="2.306" y="11.73" color-interpolation-filters="sRGB" filterUnits="userSpaceOnUse">
				<feFlood flood-opacity="0" result="BackgroundImageFix" />
				<feBlend in="SourceGraphic" in2="BackgroundImageFix" result="shape" />
				<feGaussianBlur result="effect1_foregroundBlur_18_24521" stdDeviation=".2" />
			</filter>
			<filter id="f94id1c" width="3.966" height="5.013" x="15.856" y="6.353" color-interpolation-filters="sRGB" filterUnits="userSpaceOnUse">
				<feFlood flood-opacity="0" result="BackgroundImageFix" />
				<feBlend in="SourceGraphic" in2="BackgroundImageFix" result="shape" />
				<feGaussianBlur result="effect1_foregroundBlur_18_24521" stdDeviation=".2" />
			</filter>
			<filter id="f94id1d" width="1.2" height="17.925" x="15.793" y="4.506" color-interpolation-filters="sRGB" filterUnits="userSpaceOnUse">
				<feFlood flood-opacity="0" result="BackgroundImageFix" />
				<feBlend in="SourceGraphic" in2="BackgroundImageFix" result="shape" />
				<feGaussianBlur result="effect1_foregroundBlur_18_24521" stdDeviation=".2" />
			</filter>
		</defs>
	</g>
</svg>